<?xml version="1.0" encoding="iso-8859-1"?>
<!-- Generator: Adobe Illustrator 19.0.0, SVG Export Plug-In . SVG Version: 6.00 Build 0)  -->
<svg version="1.1" id="Capa_1" xmlns="http://www.w3.org/2000/svg" xmlns:xlink="http://www.w3.org/1999/xlink" x="0px" y="0px"
	 viewBox="0 0 480 480" style="enable-background:new 0 0 480 480;" xml:space="preserve">
<g>
	<g>
		<g>
			<path d="M384.152,48H288v-8c-0.026-22.08-17.92-39.974-40-40h-16c-22.08,0.026-39.974,17.92-40,40v8H95.848
				C82.683,48.013,72.013,58.683,72,71.848v384.304c0.013,13.165,10.683,23.835,23.848,23.848h288.304
				c13.165-0.013,23.835-10.683,23.848-23.848V71.848C407.987,58.683,397.317,48.013,384.152,48z M208,40c0-13.255,10.745-24,24-24
				h16c13.255,0,24,10.745,24,24v8h-64V40z M302.552,64c-3.381,9.563-12.409,15.968-22.552,16h-80
				c-10.134-0.042-19.15-6.445-22.528-16H302.552z M392,456.152c-0.004,4.333-3.516,7.844-7.848,7.848H95.848
				c-4.333-0.004-7.844-3.516-7.848-7.848V71.848c0.004-4.333,3.516-7.844,7.848-7.848H160.8c3.827,18.611,20.199,31.976,39.2,32h80
				c19.001-0.024,35.373-13.389,39.2-32h64.96c4.332,0.004,7.844,3.516,7.848,7.848L392,456.152z"/>
			<path d="M271.2,140.424c-1.971-3.954-6.775-5.562-10.729-3.591c-1.905,0.949-3.352,2.619-4.023,4.638l-15.816,47.464
				l-8.904-31.136c-1.218-4.247-5.649-6.702-9.896-5.484c-1.944,0.558-3.605,1.831-4.648,3.564l-11.808,19.68l-5.384-48.44
				c-0.483-4.392-4.435-7.561-8.826-7.078c-3.108,0.342-5.732,2.463-6.718,5.43l-25.344,76l-15.712-36.656
				c-1.276-2.942-4.185-4.837-7.392-4.816h-32v16h26.728l21.92,51.152C153.909,230.093,156.8,232,160,232h0.336
				c3.318-0.139,6.206-2.313,7.256-5.464l20.48-61.44l4,35.792c0.487,4.391,4.441,7.557,8.833,7.07
				c2.48-0.275,4.69-1.691,5.975-3.83l14.52-24.192l10.936,38.272c0.964,3.373,4.013,5.725,7.52,5.8
				c3.495,0.039,6.623-2.167,7.76-5.472l17.888-53.68l7.36,14.728c1.354,2.702,4.114,4.41,7.136,4.416h96v-16h-91.056L271.2,140.424
				z"/>
			<rect x="104" y="280" width="272" height="16"/>
			<rect x="104" y="312" width="272" height="16"/>
			<rect x="104" y="344" width="272" height="16"/>
			<rect x="104" y="376" width="272" height="16"/>
			<rect x="104" y="408" width="272" height="16"/>
		</g>
	</g>
</g>
<g>
</g>
<g>
</g>
<g>
</g>
<g>
</g>
<g>
</g>
<g>
</g>
<g>
</g>
<g>
</g>
<g>
</g>
<g>
</g>
<g>
</g>
<g>
</g>
<g>
</g>
<g>
</g>
<g>
</g>
</svg>
